<?xml version="1.0" encoding="UTF-8"?>
<svg width="24px" height="24px" viewBox="0 0 24 24" version="1.1" xmlns="http://www.w3.org/2000/svg" xmlns:xlink="http://www.w3.org/1999/xlink">
    <!-- Generator: Sketch 64 (93537) - https://sketch.com -->
    <title>Icons/Threat Intelligence/Icon/Account</title>
    <desc>Created with Sketch.</desc>
    <g id="Icons/Threat-Intelligence/Icon/Account" stroke="none" stroke-width="1" fill="none" fill-rule="evenodd">
        <g id="cacount" transform="translate(-1.000000, -1.000000)" fill="#FFFFFF" fill-rule="nonzero">
            <path d="M13 5C8.58065 5 5 8.58065 5 13C5 17.4194 8.58065 21 13 21C17.4194 21 21 17.4194 21 13C21 8.58065 17.4194 5 13 5ZM17.129 18.6C15.971 19.4548 14.5452 19.9677 13 19.9677C11.4548 19.9677 10.029 19.4548 8.87097 18.6V18.1613C8.87097 17.0226 9.79677 16.0968 10.9355 16.0968C11.2935 16.0968 11.8226 16.4645 13 16.4645C14.1806 16.4645 14.7032 16.0968 15.0645 16.0968C16.2032 16.0968 17.129 17.0226 17.129 18.1613V18.6ZM18.1161 17.7129C17.8968 16.2161 16.6226 15.0645 15.0645 15.0645C14.4032 15.0645 14.0839 15.4323 13 15.4323C11.9161 15.4323 11.6 15.0645 10.9355 15.0645C9.37742 15.0645 8.10323 16.2161 7.88387 17.7129C6.73871 16.471 6.03226 14.8194 6.03226 13C6.03226 9.15806 9.15806 6.03226 13 6.03226C16.8419 6.03226 19.9677 9.15806 19.9677 13C19.9677 14.8194 19.2613 16.471 18.1161 17.7129ZM13 8.6129C11.4323 8.6129 10.1613 9.88387 10.1613 11.4516C10.1613 13.0194 11.4323 14.2903 13 14.2903C14.5677 14.2903 15.8387 13.0194 15.8387 11.4516C15.8387 9.88387 14.5677 8.6129 13 8.6129ZM13 13.2581C12.0032 13.2581 11.1935 12.4484 11.1935 11.4516C11.1935 10.4548 12.0032 9.64516 13 9.64516C13.9968 9.64516 14.8065 10.4548 14.8065 11.4516C14.8065 12.4484 13.9968 13.2581 13 13.2581Z" fill="white"/>
        </g>
    </g>
</svg>