<?xml version="1.0" encoding="UTF-8"?>
<svg width="24px" height="24px" viewBox="0 0 24 24" version="1.1" xmlns="http://www.w3.org/2000/svg" xmlns:xlink="http://www.w3.org/1999/xlink">
    <!-- Generator: Sketch 64 (93537) - https://sketch.com -->
    <title>Icons/Threat Intelligence/Icon/CompromisedCard</title>
    <desc>Created with Sketch.</desc>
    <g id="Icons/Threat-Intelligence/Icon/CompromisedCard" stroke="none" stroke-width="1" fill="none" fill-rule="evenodd">
        <g id="ccard" transform="translate(-1.000000, -1.000000)" fill="#FFFFFF" fill-rule="nonzero">
            <path d="M18.8333 6.84766H7.16667C6.52257 6.84766 6 7.43555 6 8.16016V17.7852C6 18.5098 6.52257 19.0977 7.16667 19.0977H18.8333C19.4774 19.0977 20 18.5098 20 17.7852V8.16016C20 7.43555 19.4774 6.84766 18.8333 6.84766ZM19.2222 17.7852C19.2222 18.0258 19.0472 18.2227 18.8333 18.2227H7.16667C6.95278 18.2227 6.77778 18.0258 6.77778 17.7852V8.16016C6.77778 7.91953 6.95278 7.72266 7.16667 7.72266H18.8333C19.0472 7.72266 19.2222 7.91953 19.2222 8.16016V17.7852ZM10.6667 15.9258V16.1445C10.6667 16.325 10.5354 16.4727 10.375 16.4727H8.625C8.46458 16.4727 8.33333 16.325 8.33333 16.1445V15.9258C8.33333 15.7453 8.46458 15.5977 8.625 15.5977H10.375C10.5354 15.5977 10.6667 15.7453 10.6667 15.9258ZM15.3333 15.9258V16.1445C15.3333 16.325 15.2021 16.4727 15.0417 16.4727H11.7361C11.5757 16.4727 11.4444 16.325 11.4444 16.1445V15.9258C11.4444 15.7453 11.5757 15.5977 11.7361 15.5977H15.0417C15.2021 15.5977 15.3333 15.7453 15.3333 15.9258ZM17.8611 8.59766H15.9167C15.5934 8.59766 15.3333 8.89023 15.3333 9.25391V10.5664C15.3333 10.9301 15.5934 11.2227 15.9167 11.2227H17.8611C18.1844 11.2227 18.4444 10.9301 18.4444 10.5664V9.25391C18.4444 8.89023 18.1844 8.59766 17.8611 8.59766ZM17.6667 10.3477H16.1111V9.47266H17.6667V10.3477ZM12.3194 14.7227H10.9583C10.7979 14.7227 10.6667 14.575 10.6667 14.3945V13.3008C10.6667 13.1203 10.7979 12.9727 10.9583 12.9727H12.3194C12.4799 12.9727 12.6111 13.1203 12.6111 13.3008V14.3945C12.6111 14.575 12.4799 14.7227 12.3194 14.7227ZM13 14.3945V13.3008C13 13.1203 13.1313 12.9727 13.2917 12.9727H14.6528C14.8132 12.9727 14.9444 13.1203 14.9444 13.3008V14.3945C14.9444 14.575 14.8132 14.7227 14.6528 14.7227H13.2917C13.1313 14.7227 13 14.575 13 14.3945ZM8.33333 14.3945V13.3008C8.33333 13.1203 8.46458 12.9727 8.625 12.9727H9.98611C10.1465 12.9727 10.2778 13.1203 10.2778 13.3008V14.3945C10.2778 14.575 10.1465 14.7227 9.98611 14.7227H8.625C8.46458 14.7227 8.33333 14.575 8.33333 14.3945ZM17.6667 13.3008V14.3945C17.6667 14.575 17.5354 14.7227 17.375 14.7227H15.625C15.4646 14.7227 15.3333 14.575 15.3333 14.3945V13.3008C15.3333 13.1203 15.4646 12.9727 15.625 12.9727H17.375C17.5354 12.9727 17.6667 13.1203 17.6667 13.3008Z" fill="white"/>
        </g>
    </g>
</svg>

