<?xml version="1.0" encoding="UTF-8"?>
<svg width="24px" height="24px" viewBox="0 0 24 24" version="1.1" xmlns="http://www.w3.org/2000/svg" xmlns:xlink="http://www.w3.org/1999/xlink">
    <!-- Generator: Sketch 64 (93537) - https://sketch.com -->
    <title>Icons/Threat Intelligence/Icon/IMEI</title>
    <desc>Created with Sketch.</desc>
    <g id="Icons/Threat-Intelligence/Icon/IMEI" stroke="none" stroke-width="1" fill="none" fill-rule="evenodd">
        <g id="barcode-alt" transform="translate(4.000000, 6.000000)" fill="#FFFFFF" fill-rule="nonzero">
            <path d="M9,9.6 L10.2,9.6 C10.31,9.6 10.4,9.51 10.4,9.4 L10.4,3.4 C10.4,3.29 10.31,3.2 10.2,3.2 L9,3.2 C8.89,3.2 8.8,3.29 8.8,3.4 L8.8,9.4 C8.8,9.51 8.89,9.6 9,9.6 Z M11.4,9.6 L12.6,9.6 C12.71,9.6 12.8,9.51 12.8,9.4 L12.8,3.4 C12.8,3.29 12.71,3.2 12.6,3.2 L11.4,3.2 C11.29,3.2 11.2,3.29 11.2,3.4 L11.2,9.4 C11.2,9.51 11.29,9.6 11.4,9.6 Z M7.4,9.6 L7.8,9.6 C7.91,9.6 8,9.51 8,9.4 L8,3.4 C8,3.29 7.91,3.2 7.8,3.2 L7.4,3.2 C7.29,3.2 7.2,3.29 7.2,3.4 L7.2,9.4 C7.2,9.51 7.29,9.6 7.4,9.6 Z M14.8,0 L1.2,0 C0.5375,0 0,0.5375 0,1.2 L0,11.6 C0,12.2625 0.5375,12.8 1.2,12.8 L14.8,12.8 C15.4625,12.8 16,12.2625 16,11.6 L16,1.2 C16,0.5375 15.4625,0 14.8,0 Z M14.8,11.6 L1.2,11.6 L1.2,1.2 L14.8,1.2 L14.8,11.6 Z M3.4,9.6 L4.6,9.6 C4.71,9.6 4.8,9.51 4.8,9.4 L4.8,3.4 C4.8,3.29 4.71,3.2 4.6,3.2 L3.4,3.2 C3.29,3.2 3.2,3.29 3.2,3.4 L3.2,9.4 C3.2,9.51 3.29,9.6 3.4,9.6 Z M5.8,9.6 L6.2,9.6 C6.31,9.6 6.4,9.51 6.4,9.4 L6.4,3.4 C6.4,3.29 6.31,3.2 6.2,3.2 L5.8,3.2 C5.69,3.2 5.6,3.29 5.6,3.4 L5.6,9.4 C5.6,9.51 5.69,9.6 5.8,9.6 Z" id="Shape"></path>
        </g>
    </g>
</svg>