<?xml version="1.0" encoding="UTF-8"?>
<svg width="24px" height="24px" viewBox="0 0 24 24" version="1.1" xmlns="http://www.w3.org/2000/svg" xmlns:xlink="http://www.w3.org/1999/xlink">
    <!-- Generator: Sketch 64 (93537) - https://sketch.com -->
    <title>Icons/Threat Intelligence/Icon/Money Mule</title>
    <desc>Created with Sketch.</desc>
    <g id="Icons/Threat-Intelligence/Icon/Money-Mule" stroke="none" stroke-width="1" fill="none" fill-rule="evenodd">
        <g id="envelope-open-dollar" transform="translate(4.000000, 3.500000)" fill="#FFFFFF" fill-rule="nonzero">
            <path d="M7.21,7.30375 L8.5284375,7.66125 C8.659375,7.696875 8.75,7.8034375 8.75,7.920625 C8.75,8.070625 8.609375,8.1925 8.435625,8.1925 L7.6125,8.1925 C7.4828125,8.1925 7.3553125,8.16 7.2446875,8.1003125 C7.1484375,8.048125 7.0309375,8.0575 6.9559375,8.1371875 L6.57875,8.535 C6.4815625,8.6375 6.4975,8.805 6.6140625,8.8846875 C6.8734375,9.06125 7.1784375,9.1621875 7.5,9.1821875 L7.5,9.5 C7.5,9.638125 7.611875,9.75 7.75,9.75 L8.25,9.75 C8.388125,9.75 8.5,9.638125 8.5,9.5 L8.5,9.1796875 C9.193125,9.1453125 9.75,8.599375 9.75,7.9203125 C9.75,7.3525 9.355625,6.8490625 8.79,6.69625 L7.4715625,6.33875 C7.340625,6.303125 7.25,6.1965625 7.25,6.079375 C7.25,5.929375 7.390625,5.8075 7.564375,5.8075 L8.3875,5.8075 C8.5171875,5.8075 8.6446875,5.84 8.7553125,5.8996875 C8.8515625,5.9515625 8.9690625,5.9425 9.0440625,5.8628125 L9.42125,5.465 C9.5184375,5.3625 9.5025,5.195 9.3859375,5.1153125 C9.1265625,4.93875 8.8215625,4.8378125 8.5,4.8178125 L8.5,4.5 C8.5,4.361875 8.388125,4.25 8.25,4.25 L7.75,4.25 C7.611875,4.25 7.5,4.361875 7.5,4.5 L7.5,4.8203125 C6.806875,4.8546875 6.25,5.400625 6.25,6.0796875 C6.25,6.6475 6.644375,7.1509375 7.21,7.30375 L7.21,7.30375 Z M15.4559375,5.14125 C15.4084375,5.101875 15.0228125,4.79125 14.5,4.370625 L14.5,3 C14.5,2.1715625 13.8284375,1.5 13,1.5 L10.9334375,1.5 C10.22625,0.9015625 9.1803125,0 8,0 C6.8234375,0 5.784375,0.8946875 5.0671875,1.5 L3,1.5 C2.1715625,1.5 1.5,2.1715625 1.5,3 L1.5,4.3703125 C0.9746875,4.7928125 0.5890625,5.1034375 0.5475,5.1378125 C0.200968301,5.42267073 0,5.84766509 0,6.29625 L0,14.5 C0,15.3284375 0.6715625,16 1.5,16 L14.5,16 C15.3284375,16 16,15.3284375 16,14.5 L16,6.2971875 C16,5.85 15.800625,5.4259375 15.4559375,5.14125 Z M3,3 L13,3 L13,7.895625 C11.866875,8.811875 10.5409375,9.8853125 10.2940625,10.0815625 C9.7265625,10.535 8.7375,11.5 8,11.5 C7.2596875,11.5 6.254375,10.5196875 5.7059375,10.0815625 C5.4590625,9.8853125 4.133125,8.8115625 3,7.895 L3,3 Z M14.5,14.3125 C14.5,14.4159375 14.4159375,14.5 14.3125,14.5 L1.6875,14.5 C1.5840625,14.5 1.5,14.4159375 1.5,14.3125 L1.5,8.61125 C2.7175,9.595 4.4984375,11.0378125 4.770625,11.254375 C5.4596875,11.805 6.6421875,13 8,13 C9.3503125,13 10.52,11.82125 11.229375,11.254375 C11.510625,11.0309375 13.286875,9.5921875 14.5,8.611875 L14.5,14.3125 Z" id="Shape"></path>
        </g>
    </g>
</svg>