<?xml version="1.0" encoding="UTF-8"?>
<svg width="24px" height="24px" viewBox="0 0 24 24" version="1.1" xmlns="http://www.w3.org/2000/svg" xmlns:xlink="http://www.w3.org/1999/xlink">
    <!-- Generator: Sketch 64 (93537) - https://sketch.com -->
    <title>Icons/Threat Intelligence/Icon/Organization</title>
    <desc>Created with Sketch.</desc>
    <g id="Icons/Threat-Intelligence/Icon/Organization" stroke="none" stroke-width="1" fill="none" fill-rule="evenodd">
        <g id="users-class" transform="translate(4.000000, 6.000000)" fill="#FFFFFF" fill-rule="nonzero">
            <path d="M2,1.2 L14,1.2 L14,4.5405 C14.441,4.6045 14.85025,4.76325 15.2,5.00825 L15.2,1.23975 C15.2,0.55625 14.66175,0 14,0 L2,0 C1.33825,0 0.8,0.55625 0.8,1.23975 L0.8,5.008 C1.14975,4.763 1.559,4.60425 2,4.54025 L2,1.2 Z M2.7,10.1 L2.1,10.1 C0.94225,10.1 0,11.04225 0,12.2 C0,12.53125 0.26875,12.8 0.6,12.8 C0.93125,12.8 1.2,12.53125 1.2,12.2 C1.2,11.704 1.604,11.3 2.1,11.3 L2.7,11.3 C3.196,11.3 3.6,11.704 3.6,12.2 C3.6,12.53125 3.86875,12.8 4.2,12.8 C4.53125,12.8 4.8,12.53125 4.8,12.2 C4.8,11.04225 3.85775,10.1 2.7,10.1 Z M13.6,5.3 C12.4955,5.3 11.6,6.1955 11.6,7.3 C11.6,8.4045 12.4955,9.3 13.6,9.3 C14.7045,9.3 15.6,8.4045 15.6,7.3 C15.6,6.1955 14.7045,5.3 13.6,5.3 Z M13.6,8.1 C13.159,8.1 12.8,7.741 12.8,7.3 C12.8,6.859 13.159,6.5 13.6,6.5 C14.041,6.5 14.4,6.859 14.4,7.3 C14.4,7.741 14.041,8.1 13.6,8.1 Z M13.9,10.1 L13.3,10.1 C12.14225,10.1 11.2,11.04225 11.2,12.2 C11.2,12.53125 11.46875,12.8 11.8,12.8 C12.13125,12.8 12.4,12.53125 12.4,12.2 C12.4,11.704 12.804,11.3 13.3,11.3 L13.9,11.3 C14.396,11.3 14.8,11.704 14.8,12.2 C14.8,12.53125 15.06875,12.8 15.4,12.8 C15.73125,12.8 16,12.53125 16,12.2 C16,11.04225 15.05775,10.1 13.9,10.1 Z M2.4,9.3 C3.5045,9.3 4.4,8.4045 4.4,7.3 C4.4,6.1955 3.5045,5.3 2.4,5.3 C1.2955,5.3 0.4,6.1955 0.4,7.3 C0.4,8.4045 1.2955,9.3 2.4,9.3 Z M2.4,6.5 C2.841,6.5 3.2,6.859 3.2,7.3 C3.2,7.741 2.841,8.1 2.4,8.1 C1.959,8.1 1.6,7.741 1.6,7.3 C1.6,6.859 1.959,6.5 2.4,6.5 Z M6,7.3 C6,8.4045 6.8955,9.3 8,9.3 C9.1045,9.3 10,8.4045 10,7.3 C10,6.1955 9.1045,5.3 8,5.3 C6.8955,5.3 6,6.1955 6,7.3 Z M8.8,7.3 C8.8,7.741 8.441,8.1 8,8.1 C7.559,8.1 7.2,7.741 7.2,7.3 C7.2,6.859 7.559,6.5 8,6.5 C8.441,6.5 8.8,6.859 8.8,7.3 Z M8.3,10.1 L7.7,10.1 C6.54225,10.1 5.6,11.04225 5.6,12.2 C5.6,12.53125 5.86875,12.8 6.2,12.8 C6.53125,12.8 6.8,12.53125 6.8,12.2 C6.8,11.704 7.204,11.3 7.7,11.3 L8.3,11.3 C8.796,11.3 9.2,11.704 9.2,12.2 C9.2,12.53125 9.46875,12.8 9.8,12.8 C10.13125,12.8 10.4,12.53125 10.4,12.2 C10.4,11.04225 9.45775,10.1 8.3,10.1 Z" id="Shape"></path>
        </g>
    </g>
</svg>